<?xml version="1.0" encoding="UTF-8"?>
<svg xmlns="http://www.w3.org/2000/svg" xmlns:xlink="http://www.w3.org/1999/xlink" width="20px" height="23px" viewBox="0 0 20 22" version="1.1">
<g id="surface1">
<path style=" stroke:none;fill-rule:nonzero;fill:rgb(18.431373%,64.313725%,58.823529%);fill-opacity:1;" d="M 0 1.375 C 21.320312 1.375 16.367188 15.007812 16.386719 17.113281 L 20 20.625 L 18.839844 20.625 L 15.695312 17.566406 C 13.957031 17.746094 10.144531 19.046875 6.125 15.976562 C 2.097656 12.902344 2.320312 9.226562 0 1.375 Z M 3.558594 3.351562 C 1.339844 2.34375 3.324219 3.746094 3.324219 3.746094 C 5.34375 5.085938 6.273438 6.914062 7.351562 8.898438 C 8.757812 11.484375 10.878906 14.902344 13.789062 16.105469 C 16.691406 17.308594 15.316406 16.640625 14.058594 15.738281 C 12.800781 14.828125 11.011719 12 9.996094 10.144531 C 8.582031 7.566406 7.273438 5.050781 3.558594 3.351562 Z M 3.558594 3.351562 "/>
</g>
</svg>
