<?xml version="1.0" standalone="no"?>
<!DOCTYPE svg PUBLIC "-//W3C//DTD SVG 20010904//EN"
 "http://www.w3.org/TR/2001/REC-SVG-20010904/DTD/svg10.dtd">
<svg version="1.0" xmlns="http://www.w3.org/2000/svg"
 width="512.000000pt" height="512.000000pt" viewBox="0 0 512.000000 512.000000"
 preserveAspectRatio="xMidYMid meet">

<g transform="translate(0.000000,512.000000) scale(0.100000,-0.100000)"
fill="#28472c" stroke="none">
<path d="M541 4983 c-61 -61 -49 -182 21 -216 32 -16 43 -17 73 -7 51 17 65
43 65 122 0 84 -23 116 -87 125 -37 5 -46 2 -72 -24z"/>
<path d="M34 4686 c-58 -58 -40 -123 46 -170 61 -33 103 -30 141 10 51 54 23
131 -63 175 -55 28 -85 24 -124 -15z"/>
<path d="M1038 4693 c-78 -43 -97 -115 -46 -170 35 -37 79 -39 138 -7 86 47
104 112 46 170 -42 42 -73 43 -138 7z"/>
<path d="M468 4667 c-92 -39 -158 -103 -201 -197 -16 -35 -21 -65 -21 -140 0
-84 3 -102 27 -152 89 -183 298 -260 482 -179 92 40 161 119 195 221 57 167
-25 357 -188 437 -47 23 -72 28 -147 31 -76 2 -99 -1 -147 -21z m211 -192 c99
-51 120 -178 42 -256 -70 -71 -162 -71 -232 0 -102 102 -31 271 114 271 26 0
61 -7 76 -15z"/>
<path d="M3773 4615 c-133 -36 -245 -128 -303 -250 -30 -61 -35 -82 -38 -167
-4 -79 0 -110 17 -167 40 -131 161 -254 294 -298 77 -25 647 -32 739 -8 124
31 211 104 266 222 23 49 27 71 27 148 0 80 -4 97 -31 155 -17 36 -45 82 -63
102 -91 104 -255 153 -384 114 l-45 -14 -50 47 c-119 112 -281 155 -429 116z
m223 -213 c45 -23 90 -69 124 -126 26 -43 74 -68 111 -59 13 4 41 18 62 31
112 74 262 7 283 -126 13 -84 -48 -177 -133 -202 -26 -8 -135 -10 -333 -8
l-295 3 -53 29 c-89 50 -132 124 -132 229 0 112 69 209 173 243 55 18 143 12
193 -14z"/>
<path d="M2034 4439 c-242 -30 -424 -236 -424 -479 0 -100 44 -226 104 -298
15 -16 26 -34 26 -39 0 -14 -74 -47 -78 -35 -10 30 -66 94 -108 122 -171 118
-406 58 -499 -127 -28 -54 -30 -66 -30 -168 0 -100 -2 -111 -22 -132 -13 -12
-23 -27 -23 -33 0 -6 -31 -192 -70 -413 -38 -221 -70 -428 -70 -460 0 -95 45
-176 124 -222 43 -25 223 -65 293 -65 l33 0 0 -52 c-1 -29 -7 -138 -15 -243
l-13 -190 -122 -250 c-68 -137 -129 -267 -136 -289 -18 -50 -18 -163 1 -215
l14 -41 -75 0 -76 0 -420 -268 c-428 -272 -448 -288 -448 -348 0 -37 59 -94
98 -94 21 0 138 70 429 255 l400 255 747 0 c631 0 752 2 779 15 18 7 181 156
362 329 l330 316 418 0 c358 0 424 2 450 15 19 10 71 66 130 142 85 110 97
130 97 165 0 77 -87 125 -148 82 -12 -8 -56 -58 -97 -110 l-76 -94 -216 2
-217 3 -174 595 -174 595 24 15 c48 31 100 85 121 124 29 55 31 184 3 236 -48
91 -125 141 -231 149 l-70 6 -42 140 c-47 156 -61 174 -129 175 -31 0 -48 -6
-68 -26 -34 -34 -34 -74 -1 -184 31 -102 31 -110 3 -110 -16 0 -81 56 -208
178 l-184 179 67 62 c199 186 207 486 20 682 -62 65 -111 99 -183 124 -59 21
-162 32 -226 24z m165 -216 c58 -21 116 -74 149 -137 38 -73 38 -179 0 -252
-53 -100 -140 -153 -253 -154 -89 0 -155 29 -212 94 -100 114 -96 281 9 383
91 87 189 108 307 66z m-764 -673 c83 -52 88 -192 8 -248 -46 -32 -86 -36
-137 -13 -58 25 -86 69 -86 135 0 56 27 108 68 131 39 21 109 19 147 -5z m709
-97 c20 -10 136 -113 257 -228 122 -116 228 -214 238 -220 9 -5 113 -12 231
-15 l214 -5 15 -27 c19 -34 6 -77 -29 -95 -19 -10 -115 -13 -381 -13 l-355 0
-118 100 c-104 89 -121 100 -155 100 -64 0 -113 -62 -97 -124 3 -14 45 -59 94
-102 48 -43 88 -81 90 -84 4 -9 -71 -70 -133 -108 -103 -63 -331 -132 -435
-132 -29 0 -31 2 -26 28 3 15 33 189 66 386 62 364 72 401 125 464 30 36 111
78 175 92 66 14 181 5 224 -17z m-839 -374 c66 -12 123 -24 127 -28 11 -10
-111 -712 -128 -738 -17 -27 -40 -29 -147 -8 -43 8 -80 15 -82 15 -15 0 -35
38 -35 65 0 28 98 616 115 693 6 27 2 27 150 1z m1798 -1007 c92 -317 168
-583 167 -590 0 -9 -14 -12 -46 -10 l-47 3 -14 55 c-7 30 -22 69 -33 87 -11
18 -121 162 -246 319 l-227 286 -165 79 c-161 77 -164 79 -159 106 3 16 13 76
23 136 l18 107 281 0 280 0 168 -578z m-967 371 c-17 -81 -18 -151 -2 -174 9
-15 92 -61 208 -119 l193 -95 203 -255 c111 -140 210 -268 218 -284 11 -21 15
-46 12 -84 -4 -48 -10 -60 -41 -88 -45 -42 -94 -52 -151 -30 -38 14 -65 45
-237 263 l-194 246 -170 83 -170 82 -189 31 c-104 18 -203 38 -220 45 -63 27
-102 102 -91 175 8 54 16 61 71 61 124 0 360 64 479 129 39 21 74 39 79 40 4
0 6 -11 2 -26z m-595 -572 c30 -10 94 -24 142 -31 48 -7 90 -16 92 -20 2 -4
-1 -78 -7 -166 l-11 -159 -157 -320 c-166 -339 -169 -343 -247 -360 -45 -9
-117 24 -143 67 -40 66 -32 93 114 396 l135 279 10 139 c6 76 11 151 11 167 0
15 2 27 3 27 2 0 28 -8 58 -19z m857 -438 c197 -249 198 -251 260 -286 l42
-24 -164 -156 -164 -157 -361 0 c-199 0 -361 2 -361 4 0 2 68 145 151 318
l152 313 13 165 c7 91 13 166 13 168 1 1 54 -25 120 -57 l118 -60 181 -228z"/>
<path d="M78 4140 c-57 -30 -81 -67 -75 -115 12 -84 93 -110 179 -56 74 47 85
116 27 170 -29 27 -81 27 -131 1z"/>
<path d="M998 4137 c-36 -34 -44 -79 -21 -120 35 -60 131 -95 184 -67 51 28
61 117 16 157 -61 56 -137 69 -179 30z"/>
<path d="M560 3882 c-68 -33 -78 -155 -19 -215 26 -26 35 -29 72 -24 64 9 87
42 87 123 0 78 -11 101 -55 120 -43 18 -43 18 -85 -4z"/>
<path d="M4706 2468 c-14 -13 -61 -70 -106 -127 -69 -90 -80 -110 -80 -144 0
-76 87 -124 148 -81 13 9 50 50 83 92 l61 77 125 5 125 5 29 33 c16 18 29 44
29 58 0 33 -25 81 -49 94 -11 6 -89 10 -180 10 -152 0 -161 -1 -185 -22z"/>
<path d="M4317 1989 c-22 -13 -47 -61 -47 -93 0 -14 13 -40 29 -58 24 -27 36
-33 71 -33 35 0 47 6 72 34 26 29 30 39 25 75 -7 53 -44 86 -95 86 -20 0 -45
-5 -55 -11z"/>
</g>
</svg>
