<?xml version="1.0" standalone="no"?>
<!DOCTYPE svg PUBLIC "-//W3C//DTD SVG 20010904//EN"
 "http://www.w3.org/TR/2001/REC-SVG-20010904/DTD/svg10.dtd">
<svg version="1.0" xmlns="http://www.w3.org/2000/svg"
 width="512.000000pt" height="512.000000pt" viewBox="0 0 512.000000 512.000000"
 preserveAspectRatio="xMidYMid meet">

<g transform="translate(0.000000,512.000000) scale(0.100000,-0.100000)"
fill="#28472c" stroke="none">
<path d="M2546 4865 l-839 -253 -691 219 c-380 120 -710 221 -732 225 -91 14
-209 -50 -257 -140 l-22 -41 -3 -2090 c-2 -1580 0 -2100 9 -2133 16 -59 60
-116 111 -145 43 -25 1554 -507 1586 -507 9 1 397 115 861 254 l844 254 692
-219 c381 -120 711 -221 732 -225 92 -14 207 49 256 140 l22 41 3 2090 c2
1580 0 2100 -9 2133 -16 59 -60 116 -111 145 -48 28 -1558 508 -1592 506 -11
-1 -398 -115 -860 -254z m784 -359 l0 -413 -72 -6 c-40 -4 -109 -16 -153 -27
-114 -28 -146 -70 -110 -139 23 -45 56 -51 151 -26 32 8 86 18 121 21 l63 7 0
-1631 0 -1631 -82 -25 c-46 -14 -384 -115 -753 -226 -368 -110 -678 -203 -687
-206 -17 -5 -18 17 -18 365 l0 370 38 6 c83 14 93 18 112 42 27 35 26 78 -5
108 -20 21 -34 25 -85 25 l-60 0 0 1670 0 1669 43 13 c23 7 366 110 762 229
396 119 723 217 728 218 4 1 7 -185 7 -413z m860 194 c792 -249 728 -227 745
-260 13 -25 15 -290 15 -2088 0 -2039 0 -2060 -20 -2085 -11 -13 -31 -28 -44
-31 -17 -4 -234 60 -703 208 l-678 214 -3 1631 c-2 1302 0 1631 10 1631 23 0
142 -30 181 -45 55 -22 94 -19 122 10 31 30 32 73 5 108 -24 30 -167 80 -262
92 l-58 7 0 413 0 414 58 -19 c31 -11 316 -101 632 -200z m-3235 -29 l660
-209 3 -1676 c2 -1412 0 -1676 -12 -1676 -7 0 -25 -9 -40 -21 -47 -37 -29
-128 29 -143 l25 -6 0 -369 0 -369 -77 25 c-43 13 -328 103 -633 199 -769 242
-708 221 -725 254 -13 25 -15 290 -15 2087 0 1875 1 2061 16 2081 20 29 51 42
84 36 14 -3 322 -99 685 -213z"/>
<path d="M2745 3859 c-59 -55 -125 -154 -125 -189 0 -57 63 -100 116 -80 12 5
37 30 55 57 18 26 50 67 71 90 47 53 51 97 12 137 -39 39 -75 34 -129 -15z"/>
<path d="M2532 3388 c-38 -41 -57 -242 -27 -285 30 -43 120 -34 140 14 11 29
33 215 28 232 -13 36 -46 61 -83 61 -25 0 -43 -7 -58 -22z"/>
<path d="M2505 2877 c-29 -24 -31 -43 -27 -190 2 -68 5 -81 27 -102 31 -32 75
-32 112 -1 28 24 28 25 28 146 0 121 0 122 -28 146 -35 30 -78 31 -112 1z"/>
<path d="M2504 2367 c-25 -22 -28 -31 -35 -132 -8 -116 -3 -144 33 -169 50
-35 110 -11 128 52 11 40 14 200 4 227 -8 19 -55 45 -83 45 -11 0 -32 -11 -47
-23z"/>
<path d="M2475 1871 c-12 -5 -26 -16 -33 -24 -17 -20 -62 -189 -62 -232 0 -67
92 -101 139 -51 22 23 70 183 71 233 0 48 -69 93 -115 74z"/>
<path d="M2252 1363 c-11 -10 -45 -46 -76 -80 -42 -47 -56 -70 -56 -93 0 -44
39 -80 87 -80 33 0 45 8 100 65 69 71 87 104 78 147 -12 54 -90 78 -133 41z"/>
<path d="M3965 3828 c-58 -31 -61 -86 -7 -154 22 -27 51 -70 66 -97 46 -78 97
-98 148 -57 51 39 38 97 -47 216 -70 98 -109 120 -160 92z"/>
<path d="M4194 3215 c-25 -25 -25 -27 -18 -138 4 -69 12 -121 21 -135 30 -49
92 -53 133 -10 16 17 20 35 20 87 0 112 -11 169 -36 196 -32 34 -86 34 -120 0z"/>
<path d="M4209 2701 c-29 -29 -29 -31 -29 -141 0 -110 0 -112 29 -141 38 -37
82 -39 116 -4 24 23 25 30 25 145 0 115 -1 122 -25 145 -34 35 -78 33 -116 -4z"/>
<path d="M4209 2191 c-27 -27 -29 -35 -29 -100 0 -58 4 -74 23 -95 34 -40 77
-43 115 -11 31 26 32 29 32 103 -1 80 -8 100 -47 120 -35 19 -63 14 -94 -17z"/>
<path d="M3890 2037 c-35 -18 -55 -57 -46 -93 5 -19 59 -81 154 -177 l146
-147 -152 -153 c-131 -132 -152 -158 -152 -185 0 -48 39 -86 85 -85 35 1 50
13 189 152 l151 151 151 -150 c140 -140 153 -150 188 -150 48 0 86 36 86 81 0
28 -19 52 -152 186 l-152 153 152 153 c137 139 152 157 152 188 -1 38 -14 60
-48 78 -45 24 -73 5 -227 -149 l-150 -150 -150 149 c-85 86 -161 152 -175 156
-14 3 -36 -1 -50 -8z"/>
<path d="M775 4260 c-270 -43 -456 -289 -431 -567 21 -225 145 -461 359 -680
93 -95 130 -119 170 -109 34 8 155 123 233 220 169 209 255 419 255 621 1 132
-27 217 -104 322 -104 142 -304 222 -482 193z m195 -187 c83 -29 146 -87 190
-173 35 -67 39 -200 11 -304 -38 -138 -112 -266 -241 -414 l-73 -84 -44 44
c-109 106 -217 274 -266 417 -25 71 -30 103 -31 181 -1 89 1 100 32 162 79
160 252 231 422 171z"/>
<path d="M815 3828 c-52 -28 -62 -92 -20 -133 34 -35 78 -33 116 4 38 38 38
74 0 112 -31 30 -62 36 -96 17z"/>
<path d="M795 2705 c-24 -23 -25 -30 -25 -145 0 -115 1 -122 25 -145 34 -35
78 -33 116 4 29 29 29 31 29 141 0 110 0 112 -29 141 -38 37 -82 39 -116 4z"/>
<path d="M815 2208 c-42 -24 -46 -38 -43 -160 3 -107 5 -118 27 -142 30 -32
78 -34 115 -5 26 20 26 23 26 140 0 120 0 121 -29 150 -31 30 -63 36 -96 17z"/>
<path d="M849 1681 c-16 -16 -29 -39 -29 -50 0 -39 61 -211 84 -238 33 -38 89
-38 122 1 29 33 30 50 5 118 -11 29 -27 79 -36 111 -13 45 -23 61 -45 72 -43
22 -68 18 -101 -14z"/>
<path d="M1089 1251 c-47 -47 -36 -95 35 -147 71 -53 142 -86 168 -79 70 21
91 95 41 142 -46 42 -165 113 -191 113 -13 0 -37 -13 -53 -29z"/>
</g>
</svg>
